<?xml version="1.0" standalone="no"?><!DOCTYPE svg PUBLIC "-//W3C//DTD SVG 1.1//EN" "http://www.w3.org/Graphics/SVG/1.1/DTD/svg11.dtd"><svg t="1749734267961" class="icon" viewBox="0 0 1024 1024" version="1.1" xmlns="http://www.w3.org/2000/svg" p-id="1876" xmlns:xlink="http://www.w3.org/1999/xlink" width="200" height="200"><path d="M225.754 836.45a6.75 6.75 0 0 1-2.048-0.224c-0.337 0-0.562 0.225-0.922 0.225h2.97z m-37.552-287.773a72 72 0 1 1 72.607 71.1 71.504 71.504 0 0 1-72.607-71.1z m57.24-239.173a71.1 71.1 0 0 1 49.5-47.7 72 72 0 1 1 15.254 141.524 71.37 71.37 0 0 1-64.867-93.824zM529.569 169.33a72.157 72.157 0 1 1-71.122 72.899 71.617 71.617 0 0 1 71.121-72.9zM306.438 770.976c25.38-43.65 66.554-112.274 168.299-116.1-0.225 2.7 2.25-23.4 2.25-23.4 15.48-72.9 23.332-109.573 86.49-169.874 45.741-43.198 158.511-143.098 236.788-211.723a105.75 105.75 0 0 0 19.125-37.35c0.001-97.65-161.03-150.524-314.638-150.524C258.626 60.88 60.605 267.879 62.09 516.053a495.425 495.425 0 0 0 105.48 285.973 85.5 85.5 0 0 0 56.25 34.2c40.499-0.225 58.026-22.95 82.731-65.25z m493.851-169.424c-26.73 65.7-92.048 160.875-198.562 160.875v0.674c0 130.5-57.578 176.849-72 197.774 13.186 0 84.645-9.225 84.645-9.225 138.037-25.425 241.47-117.9 217.934-241.874-6.502-33.974-33.458-104.85-32.107-108.224z m121.993-390.148S671.588 433.253 600.016 500.977c-54.967 52.65-56.564 76.95-74.43 159.525a13.05 13.05 0 0 0 4.208 12.375l50.872 42.75a12.42 12.42 0 0 0 8.19 2.924 12.78 12.78 0 0 0 5.018-0.9c76.23-31.95 99.9-38.024 140.422-102.15 53.707-84.374 223.829-374.172 223.829-374.172a23.467 23.467 0 0 0-35.842-29.925zM543.227 765.352l-59.963-53.776a12.802 12.802 0 0 0-8.865-2.925h-0.472c-145.867 0-101.61 180.674-233.391 180.674a149.715 149.715 0 0 1-36.18-16.65C242.606 946.026 308.937 962 368.786 962c93.307 0 186.164-63.675 179.46-186.974a13.118 13.118 0 0 0-5.019-9.675" fill="#fff" p-id="1877"></path></svg>