<?xml version="1.0" standalone="no"?><!DOCTYPE svg PUBLIC "-//W3C//DTD SVG 1.1//EN" "http://www.w3.org/Graphics/SVG/1.1/DTD/svg11.dtd"><svg t="1749734272923" class="icon" viewBox="0 0 1024 1024" version="1.1" xmlns="http://www.w3.org/2000/svg" p-id="2019" xmlns:xlink="http://www.w3.org/1999/xlink" width="200" height="200"><path d="M403.072 844.928C342.912 905.088 64 960 64 960s54.912-278.912 115.072-339.072c60.16-60.16 159.072-58.784 220.928 3.072s63.232 160.768 3.072 220.928z" fill="#E0EBFE" p-id="2020"></path><path d="M64 992a31.968 31.968 0 0 0 6.176-0.608c29.536-5.824 290.368-58.688 355.52-123.84 33.216-33.216 50.144-76.288 52.48-120.288a32 32 0 0 0 7.392-2.752c87.552-45.632 170.016-106.816 245.056-181.888 75.072-75.04 136.256-157.504 181.888-245.056 43.84-84.096 71.264-170.656 79.36-250.336a32 32 0 0 0-35.104-35.072c-79.68 8.064-166.24 35.52-250.336 79.328-87.52 45.6-169.952 106.784-245.056 181.888-75.072 75.04-136.256 157.504-181.888 245.056-1.216 2.304-1.472 4.736-2.08 7.168-45.856 2.24-88.608 20.352-120.96 52.704-65.152 65.152-118.016 325.984-123.84 355.52A32 32 0 0 0 64 992z m442.624-653.376C577.088 268.16 654.272 210.816 736 168.224c62.56-32.576 126.112-55.232 186.24-66.432C910.976 161.888 888.32 225.44 855.744 288c-42.624 81.76-99.968 158.944-170.4 229.376a1003.52 1003.52 0 0 1-91.136 80.128c-26.336-74.368-93.376-141.44-167.744-167.744a1003.52 1003.52 0 0 1 80.128-91.136z m-101.056 118.368c73.28 21.056 140.384 88.16 161.44 161.44a889.376 889.376 0 0 1-97.504 61.568 191.36 191.36 0 0 0-46.88-78.624 192.736 192.736 0 0 0-78.144-47.68 889.376 889.376 0 0 1 61.12-96.704z m-203.84 186.56a119.264 119.264 0 0 1 84.992-34.88c33.984 0 66.176 13.472 90.656 37.952 49.28 49.28 50.656 128.096 3.072 175.68-33.344 33.312-170.848 72.768-274.944 96.192 23.424-104.096 62.848-241.6 96.192-274.944z" fill="#fff" p-id="2021"></path></svg>