<?xml version="1.0" standalone="no"?><!DOCTYPE svg PUBLIC "-//W3C//DTD SVG 1.1//EN" "http://www.w3.org/Graphics/SVG/1.1/DTD/svg11.dtd"><svg t="1749734235802" class="icon" viewBox="0 0 1024 1024" version="1.1" xmlns="http://www.w3.org/2000/svg" p-id="1590" xmlns:xlink="http://www.w3.org/1999/xlink" width="200" height="200"><path d="M299.17790815 556.53211653l-26.14967309-2.20071505s-26.27912691-17.86462815-21.48933531 4.78979161l2.20071507 15.53445926s-4.66033778 24.07841185 6.99050666 25.24349629L246.61965431 618.92886124l-95.79583209 33.3990874-23.94895803 4.78979161s-49.0630005 0-76.50721184 22.65441975c0 0-49.19245431 15.79336691-40.64850174 25.37295013 8.28504494 9.5795832 44.14375506 2.20071506 44.14375508 2.20071505s25.2434963-1.29453827 38.31833283 4.91924543c0 0 9.5795832 12.03920592 19.02971259 4.66033778 9.5795832-7.1199605 9.5795832-19.15916642 9.5795832-19.15916642s2.45962272-11.9097521 48.93354667-15.66391308c0 0 87.51078717-4.78979161 112.62482963-26.14967308l23.94895803-16.69954371 33.39908741-7.24941432s17.99408197 15.66391309 30.0332879 9.5795832l16.6995437 14.36937483s-1.16508445 17.99408197 15.6639131 13.07483654l17.99408197 2.33016889s50.09863111 22.91332741 145.63555555 21.48933529c0 0 61.23166025 33.52854124 104.21033087 9.57958322 0 0 56.18296098 1.4239921 100.45616988-59.93712197 0 0 27.44421136-46.60337778 44.27320888-103.95142321 0 0 45.43829333 0 60.9727526-1.03563062 0 0 22.65441975 4.66033778 26.27912691 4.66033778 3.75416098 0 51.5226232 7.24941431 80.26137284 0 0 0 39.35396347-3.49525333 33.3990874-25.11404248-5.95487605-21.35988148-14.23992098-17.86462815-58.51312987-16.57008986 0 0-45.43829333 1.16508445-54.88842272 10.87412147l-80.13191901-15.66391308s0-45.3088395-23.94895802-25.11404247l-99.16163161 9.32067555s-20.19479703-6.99050667-28.86820345 6.08432989c0 0-10.61521383-12.16865975-19.15916644 0 0 0-4.78979161-10.87412148-13.07483653-2.58907656 0 0-10.74466765-10.61521383-19.15916642-3.62470716 0 0-8.41449876-8.28504494-15.40500543-3.3657995 0 0-2.58907653-14.36937482-35.98816396-10.74466766 0 0-24.07841185-29.90383408-33.52854122-28.86820345l-26.40858075-22.39551211s-5.95487605-22.78387358-13.20429037-19.15916641l13.20429037-22.9133274s11.9097521 1.29453827 14.23992098-26.40858075l74.17704297-3.62470716s44.14375506 9.5795832 125.57021235-11.90975209c0 0 33.52854124 24.98458864 52.68770765 22.78387358 0 0 8.41449876 9.5795832 13.07483655 3.62470716 4.91924543-6.08432987-16.6995437-15.66391309-16.6995437-15.66391309h12.03920592s20.19479703 21.74824297 27.57366519 16.82899754c7.1199605-4.91924543-13.20429037-16.82899753-13.20429038-16.82899754s11.78029827 3.75416098 15.66391308 0c3.62470717-3.3657995-7.24941431-4.66033778-7.24941431-4.66033778s12.03920592 1.16508445 14.49882865-3.75416098c0 0-1.29453827-4.78979161-17.99408199-3.49525334 0 0-1.16508445-8.41449876-26.27912691-10.74466766 0 0-49.19245431-10.87412148-61.10220642-2.58907654L671.22820741 311.3465679s-32.3634568-10.74466765-64.59745976-1.16508443l-42.97867062-2.20071508-16.82899753-9.57958321-19.02971259-21.61878913-6.08432988-18.90025877 13.20429038-5.04869925s11.9097521 2.33016889 21.48933531-8.5439526c0 0 27.44421136-51.26371555-2.33016889-65.76254419 0 0-49.0630005-34.69362569-60.97275259-22.65441976 0 0-15.66391309 5.95487605-21.48933532 13.20429037l-7.37886814 9.57958321s-20.32425086-3.62470717-15.79336692 8.54395259c0 0-22.65441975 40.64850173-5.82542222 47.6390084 0 0 25.11404247 13.20429037 5.82542222 41.81358617l-17.86462814 7.24941431-53.72333827-33.65799505-38.31833284-46.73283161s-14.36937482-39.48341728-49.0630005-62.0083832c0 0-27.57366518-48.93354667-53.85279209-50.22808494l-28.73874963-17.99408198s-19.15916642-21.61878914-21.35988149-16.6995437c-2.45962272 4.78979161 9.5795832 16.6995437 9.57958321 16.6995437s-20.45370469-7.1199605-19.15916642-1.03563061c1.29453827 5.95487605 19.15916642 8.28504494 19.15916642 8.28504494s-4.91924543 9.83849086 7.1199605 10.87412147c0 0-16.6995437 5.95487605 2.33016889 10.74466765l43.23757826 19.02971261 42.97867063 74.17704295s92.04167111 112.49537581 103.9514232 117.41462124c0 0-34.56417185 41.81358617-10.74466765 65.76254419l-2.33016889 22.65441976s-3.62470717 14.36937482 2.33016889 24.98458864c0 0-1.29453827 45.56774717 5.95487604 48.02736988l-3.49525333 16.82899753s-30.0332879 14.36937482-31.19837234 27.31475753c0 0-34.69362569-11.78029827-41.81358617 21.4893353 0.25890765 0-4.53088395 13.20429037-14.23992099 16.6995437z" p-id="1591" fill="#fff"></path></svg>