<?xml version="1.0" standalone="no"?><!DOCTYPE svg PUBLIC "-//W3C//DTD SVG 1.1//EN" "http://www.w3.org/Graphics/SVG/1.1/DTD/svg11.dtd"><svg t="1749734322153" class="icon" viewBox="0 0 1024 1024" version="1.1" xmlns="http://www.w3.org/2000/svg" p-id="1287" xmlns:xlink="http://www.w3.org/1999/xlink" width="200" height="200"><path d="M959.488 553.984c-43.52-242.688-233.984-418.304-452.096-418.304-217.6 0-407.04 175.104-451.584 416.256-2.56 14.848 4.608 30.208 17.408 35.328 116.736 45.568 233.472 90.624 350.208 136.192-18.432 7.168-34.816 13.312-40.448 15.872-12.288 5.632-18.944 19.968-16.384 34.816 13.824 75.264 72.704 130.048 140.8 130.048 67.584 0 126.464-54.272 140.288-129.536 2.56-14.848-4.608-30.208-17.408-35.328l-38.4-14.848c111.616-41.984 311.296-117.248 351.744-135.68 11.776-5.632 18.432-20.48 15.872-34.816z m-452.096 300.544c-34.304 0-75.776-34.304-90.624-68.096 22.016-8.704 65.024-32.768 90.624-42.496l90.624 43.008c-15.36 33.28-56.32 67.584-90.624 67.584z m0.512-151.552c-131.072-50.688-272.896-101.888-403.968-152.576 47.616-199.68 219.648-365.568 403.968-365.568 185.344 0 357.888 166.912 404.48 368.128-86.528 34.816-354.304 131.072-404.48 150.016z m0 0" fill="#fff" p-id="1288"></path><path d="M508.416 292.352c-217.088 10.752-301.056 201.216-301.056 201.216l301.056 111.104 301.056-111.104s-83.968-189.952-301.056-201.216z m0 0" fill="#fff" p-id="1289"></path></svg>