<?xml version="1.0" standalone="no"?><!DOCTYPE svg PUBLIC "-//W3C//DTD SVG 1.1//EN" "http://www.w3.org/Graphics/SVG/1.1/DTD/svg11.dtd"><svg t="1749734265012" class="icon" viewBox="0 0 1024 1024" version="1.1" xmlns="http://www.w3.org/2000/svg" p-id="1733" xmlns:xlink="http://www.w3.org/1999/xlink" width="200" height="200"><path d="M120.832 736.6656l47.9232 47.9232c-6.5536 21.0944-12.9024 56.1152 0 91.3408 12.4928 33.792 39.1168 59.392 79.0528 76.1856 13.1072 5.5296 26.8288 7.9872 40.7552 7.9872 41.7792 0 87.2448-21.2992 134.7584-43.6224 96.6656-45.2608 206.4384-96.8704 326.2464-2.6624 11.8784 9.216 29.0816 7.168 38.2976-4.7104s7.168-29.0816-4.7104-38.2976c-146.432-114.688-283.2384-50.5856-383.1808-3.6864-54.272 25.3952-101.1712 47.3088-131.2768 34.6112-25.6-10.6496-42.1888-25.8048-49.152-44.8512-3.072-8.6016-4.3008-17.2032-4.096-25.3952l21.2992 21.2992c5.3248 5.3248 12.288 7.9872 19.2512 7.9872 5.9392 0 12.0832-2.048 17.2032-5.9392L647.7824 552.96c5.7344 0.4096 11.264 0.8192 17.2032 0.8192 135.168 0 245.1456-109.9776 245.1456-245.1456S800.1536 63.488 664.9856 63.488 419.84 173.4656 419.84 308.6336c0 5.7344 0.4096 11.4688 0.8192 17.2032L118.784 700.2112c-8.6016 10.8544-7.7824 26.624 2.048 36.4544z m242.688-161.5872l58.9824-59.1872c10.6496-10.6496 27.8528-10.6496 38.5024 0 10.6496 10.6496 10.6496 27.8528 0 38.5024l-59.1872 59.1872c-5.3248 5.3248-12.288 7.9872-19.2512 7.9872-6.9632 0-13.9264-2.6624-19.2512-7.9872-10.4448-10.6496-10.4448-27.8528 0.2048-38.5024z" p-id="1734" fill="#fff"></path></svg>