<?xml version="1.0" standalone="no"?><!DOCTYPE svg PUBLIC "-//W3C//DTD SVG 1.1//EN" "http://www.w3.org/Graphics/SVG/1.1/DTD/svg11.dtd"><svg t="1749734294323" class="icon" viewBox="0 0 1024 1024" version="1.1" xmlns="http://www.w3.org/2000/svg" p-id="1143" xmlns:xlink="http://www.w3.org/1999/xlink" width="200" height="200"><path d="M715.145846 675.643077c28.081231-67.938462 38.596923-141.390769 30.562462-214.055385-9.176615-49.860923-48.876308-255.094154-79.43877-302.00123-30.523077-46.907077-54.941538-49.860923-91.608615-29.302154a750.08 750.08 0 0 1-445.912615 73.255384 75.972923 75.972923 0 0 0-54.902154 7.561846c-16.541538 9.334154-28.632615 24.536615-33.673846 42.299077-6.104615 20.519385 24.418462 249.225846 51.908923 343.04a404.48 404.48 0 0 0 83.298461 159.350154 425.432615 425.432615 0 0 0 145.762462 110.434462c125.243077 58.643692 192.433231 58.643692 299.323077-43.992616a737.437538 737.437538 0 0 0 94.680615-146.589538zM211.219692 429.292308a102.006154 102.006154 0 0 1 42.732308-22.724923c15.990154-4.096 32.768-4.332308 48.876308-0.708923 7.246769 0.708923 14.257231 2.835692 20.637538 6.183384 6.380308 3.347692 12.012308 7.876923 16.541539 13.312a50.766769 50.766769 0 0 1 11.657846 39.108923c-6.065231 32.295385-33.555692 32.295385-57.974154 32.295385a228.036923 228.036923 0 0 1-70.262154-11.736616 33.831385 33.831385 0 0 1-15.281231-9.058461 31.035077 31.035077 0 0 1-7.08923-32.492308c1.969231-5.513846 5.513846-10.436923 10.16123-14.178461z m250.44677 334.25723c-82.471385 14.651077-158.838154-23.433846-177.152-85.031384a381.361231 381.361231 0 0 0 158.444307 7.601231 375.177846 375.177846 0 0 0 146.983385-57.42277c6.104615 61.558154-51.948308 123.116308-128.275692 137.80677v-2.953847z m134.380307-351.862153a191.960615 191.960615 0 0 1-97.752615 49.860923 44.228923 44.228923 0 0 1-22.331077-4.489846 42.141538 42.141538 0 0 1-16.738462-14.848 39.857231 39.857231 0 0 1-0.630153-42.220308c13.784615-20.164923 35.131077-34.422154 59.549538-39.896616a101.218462 101.218462 0 0 1 71.798154 10.555077c3.584 2.008615 6.695385 4.765538 8.979692 8.073847a25.796923 25.796923 0 0 1 3.387077 22.843076 26.190769 26.190769 0 0 1-6.301538 10.161231z" fill="#fff" p-id="1144"></path><path d="M983.04 248.635077a71.404308 71.404308 0 0 0-33.004308-41.432615 77.508923 77.508923 0 0 0-53.76-8.78277 796.356923 796.356923 0 0 1-207.635692 0c18.589538 62.030769 37.179077 147.692308 46.473846 200.822154h9.294769c15.990154 3.662769 30.838154 10.948923 43.244308 21.228308 12.406154 10.24 22.055385 23.236923 28.041846 37.809231a31.232 31.232 0 0 1-2.678154 35.052307 34.028308 34.028308 0 0 1-15.36 10.909539 35.721846 35.721846 0 0 1-19.140923 1.299692l-34.107077-5.907692a405.425231 405.425231 0 0 1-37.179077 171.323077l-9.294769 20.637538a105.550769 105.550769 0 0 1 21.700923 73.846154l-46.473846-26.584615c-18.116923 31.113846-38.833231 60.731077-61.991384 88.615384A374.153846 374.153846 0 0 1 512 898.363077c55.768615 17.723077 111.576615 2.914462 185.934769-32.492308a431.261538 431.261538 0 0 0 147.928616-111.222154 406.370462 406.370462 0 0 0 84.519384-160.492307c27.884308-94.523077 61.952-324.883692 52.657231-345.521231z" fill="#fff" p-id="1145"></path></svg>